<mxfile host="65bd71144e">
    <diagram id="B98Myi7qIVIVGV0O9Yf8" name="Page-1">
        <mxGraphModel dx="88" dy="564" grid="1" gridSize="10" guides="1" tooltips="1" connect="1" arrows="1" fold="1" page="1" pageScale="1" pageWidth="827" pageHeight="1169" background="#ffffff" math="1" shadow="0">
            <root>
                <mxCell id="0"/>
                <mxCell id="1" parent="0"/>
                <mxCell id="huDF47PdF3qLj8TZO268-3" style="edgeStyle=orthogonalEdgeStyle;rounded=0;orthogonalLoop=1;jettySize=auto;html=1;" parent="1" source="huDF47PdF3qLj8TZO268-2" target="3" edge="1">
                    <mxGeometry relative="1" as="geometry">
                        <mxPoint x="380" y="90" as="targetPoint"/>
                    </mxGeometry>
                </mxCell>
                <mxCell id="huDF47PdF3qLj8TZO268-2" value="Начало" style="ellipse;whiteSpace=wrap;html=1;" parent="1" vertex="1">
                    <mxGeometry x="325" y="20" width="110" height="40" as="geometry"/>
                </mxCell>
                <mxCell id="huDF47PdF3qLj8TZO268-14" style="edgeStyle=orthogonalEdgeStyle;rounded=0;orthogonalLoop=1;jettySize=auto;html=1;" parent="1" source="huDF47PdF3qLj8TZO268-10" target="huDF47PdF3qLj8TZO268-12" edge="1">
                    <mxGeometry relative="1" as="geometry"/>
                </mxCell>
                <mxCell id="huDF47PdF3qLj8TZO268-10" value="Разбиение исходной выборки на кластеры по мере близости" style="rounded=0;whiteSpace=wrap;html=1;" parent="1" vertex="1">
                    <mxGeometry x="190" y="180" width="380" height="40" as="geometry"/>
                </mxCell>
                <mxCell id="huDF47PdF3qLj8TZO268-11" style="edgeStyle=orthogonalEdgeStyle;rounded=0;orthogonalLoop=1;jettySize=auto;html=1;" parent="1" source="3" target="huDF47PdF3qLj8TZO268-10" edge="1">
                    <mxGeometry relative="1" as="geometry">
                        <mxPoint x="381.5" y="150" as="sourcePoint"/>
                    </mxGeometry>
                </mxCell>
                <mxCell id="huDF47PdF3qLj8TZO268-15" style="edgeStyle=orthogonalEdgeStyle;rounded=0;orthogonalLoop=1;jettySize=auto;html=1;" parent="1" source="huDF47PdF3qLj8TZO268-12" target="8" edge="1">
                    <mxGeometry relative="1" as="geometry">
                        <mxPoint x="380" y="340" as="targetPoint"/>
                    </mxGeometry>
                </mxCell>
                <mxCell id="huDF47PdF3qLj8TZO268-12" value="Перерасчёт центров кластеризации" style="rounded=0;whiteSpace=wrap;html=1;" parent="1" vertex="1">
                    <mxGeometry x="190" y="250" width="380" height="40" as="geometry"/>
                </mxCell>
                <mxCell id="huDF47PdF3qLj8TZO268-17" style="edgeStyle=orthogonalEdgeStyle;rounded=0;orthogonalLoop=1;jettySize=auto;html=1;exitX=1;exitY=0.5;exitDx=0;exitDy=0;" parent="1" source="8" target="huDF47PdF3qLj8TZO268-16" edge="1">
                    <mxGeometry relative="1" as="geometry">
                        <mxPoint x="380" y="410" as="sourcePoint"/>
                    </mxGeometry>
                </mxCell>
                <mxCell id="huDF47PdF3qLj8TZO268-16" value="Конец" style="ellipse;whiteSpace=wrap;html=1;" parent="1" vertex="1">
                    <mxGeometry x="325" y="450" width="110" height="40" as="geometry"/>
                </mxCell>
                <mxCell id="3" value="&lt;span&gt;Выбираются начальные значения центров кластеров&lt;br&gt;&lt;font style=&quot;font-size: 9px&quot;&gt;(может и косой прямоугольник)&lt;/font&gt;&lt;br&gt;&lt;/span&gt;" style="rounded=0;whiteSpace=wrap;html=1;" parent="1" vertex="1">
                    <mxGeometry x="266" y="90" width="228" height="60" as="geometry"/>
                </mxCell>
                <mxCell id="9" value="" style="group" parent="1" vertex="1" connectable="0">
                    <mxGeometry x="220" y="330" width="320" height="80" as="geometry"/>
                </mxCell>
                <mxCell id="8" value="" style="rhombus;whiteSpace=wrap;html=1;fontSize=9;" parent="9" vertex="1">
                    <mxGeometry width="320" height="80" as="geometry"/>
                </mxCell>
                <mxCell id="7" value="&lt;span style=&quot;color: rgb(0 , 0 , 0) ; font-family: &amp;#34;helvetica&amp;#34; ; font-size: 12px ; font-style: normal ; font-weight: 400 ; letter-spacing: normal ; text-align: center ; text-indent: 0px ; text-transform: none ; word-spacing: 0px ; background-color: rgb(248 , 249 , 250) ; display: inline ; float: none&quot;&gt;Разница значений центров &amp;gt; 0&lt;/span&gt;&lt;br&gt;" style="text;whiteSpace=wrap;html=1;fontSize=9;" parent="9" vertex="1">
                    <mxGeometry x="74" y="30" width="200" height="30" as="geometry"/>
                </mxCell>
                <mxCell id="10" style="edgeStyle=orthogonalEdgeStyle;html=1;entryX=0;entryY=0.5;entryDx=0;entryDy=0;fontSize=9;" parent="1" source="8" target="huDF47PdF3qLj8TZO268-10" edge="1">
                    <mxGeometry relative="1" as="geometry">
                        <Array as="points">
                            <mxPoint x="170" y="370"/>
                            <mxPoint x="170" y="200"/>
                        </Array>
                    </mxGeometry>
                </mxCell>
            </root>
        </mxGraphModel>
    </diagram>
</mxfile>